<svg width="2553" height="2520" viewBox="0 0 2553 2520" fill="none" xmlns="http://www.w3.org/2000/svg">
<path d="M2249.69 739.626V1863.37L1276.5 2425.25L303.308 1863.37V739.626L1276.5 177.754L2249.69 739.626Z" fill="white" stroke="black" stroke-width="55"/>
<path d="M686.127 671.047L652.001 765H638.053L677.348 661.914H686.339L686.127 671.047ZM714.73 765L680.534 671.047L680.321 661.914H689.313L728.749 765H714.73ZM712.96 726.838V738.025H655.045V726.838H712.96ZM780.575 724.573H753.034V713.457H780.575C785.909 713.457 790.228 712.607 793.532 710.908C796.836 709.209 799.243 706.849 800.753 703.828C802.311 700.807 803.09 697.362 803.09 693.491C803.09 689.951 802.311 686.624 800.753 683.508C799.243 680.393 796.836 677.891 793.532 676.003C790.228 674.068 785.909 673.101 780.575 673.101H756.22V765H742.555V661.914H780.575C788.363 661.914 794.948 663.259 800.329 665.95C805.709 668.64 809.792 672.369 812.577 677.136C815.362 681.856 816.754 687.261 816.754 693.35C816.754 699.958 815.362 705.598 812.577 710.271C809.792 714.944 805.709 718.507 800.329 720.962C794.948 723.369 788.363 724.573 780.575 724.573ZM862.421 671.047L828.295 765H814.347L853.642 661.914H862.633L862.421 671.047ZM891.024 765L856.828 671.047L856.615 661.914H865.607L905.043 765H891.024ZM889.254 726.838V738.025H831.339V726.838H889.254ZM980.233 732.219H993.827C993.119 738.733 991.255 744.562 988.234 749.707C985.213 754.852 980.941 758.935 975.419 761.956C969.896 764.929 963.005 766.416 954.745 766.416C948.703 766.416 943.205 765.283 938.249 763.018C933.34 760.752 929.115 757.542 925.575 753.389C922.035 749.188 919.298 744.161 917.362 738.308C915.474 732.408 914.53 725.847 914.53 718.625V708.359C914.53 701.138 915.474 694.6 917.362 688.748C919.298 682.847 922.059 677.797 925.646 673.596C929.28 669.395 933.646 666.162 938.744 663.896C943.842 661.631 949.577 660.498 955.949 660.498C963.737 660.498 970.321 661.961 975.702 664.888C981.083 667.814 985.26 671.873 988.234 677.065C991.255 682.21 993.119 688.181 993.827 694.978H980.233C979.573 690.164 978.345 686.034 976.552 682.588C974.758 679.095 972.209 676.405 968.905 674.517C965.601 672.629 961.282 671.685 955.949 671.685C951.37 671.685 947.335 672.558 943.842 674.304C940.396 676.051 937.493 678.529 935.133 681.738C932.82 684.948 931.074 688.795 929.894 693.279C928.714 697.763 928.124 702.743 928.124 708.218V718.625C928.124 723.676 928.643 728.42 929.682 732.856C930.767 737.293 932.396 741.187 934.567 744.539C936.738 747.89 939.499 750.533 942.851 752.468C946.202 754.356 950.167 755.3 954.745 755.3C960.551 755.3 965.176 754.38 968.622 752.539C972.068 750.698 974.664 748.055 976.41 744.609C978.204 741.164 979.478 737.034 980.233 732.219ZM1079.78 706.235V717.351H1023.99V706.235H1079.78ZM1026.11 661.914V765H1012.45V661.914H1026.11ZM1091.67 661.914V765H1078.08V661.914H1091.67ZM1181.45 753.884V765H1126.86V753.884H1181.45ZM1129.62 661.914V765H1115.96V661.914H1129.62ZM1174.23 706.235V717.351H1126.86V706.235H1174.23ZM1180.74 661.914V673.101H1126.86V661.914H1180.74Z" fill="black"/>
<path d="M1307.42 1642.45L882.064 1218.56C882.021 1218.52 881.975 1218.48 881.925 1218.45C881.316 1218.04 880.5 1218.48 880.5 1219.21V1393.88C880.5 1396.52 881.545 1399.05 883.408 1400.93L1124.98 1643.94C1128.86 1647.84 1128.85 1654.15 1124.96 1658.05L882.968 1900.53C881.07 1902.43 880.017 1905.01 880.046 1907.7L881.736 2060.64C881.834 2069.5 892.573 2073.87 898.827 2067.58L1307.46 1656.58C1311.35 1652.67 1311.33 1646.34 1307.42 1642.45Z" fill="black"/>
<path d="M1604.42 1642.95L1179.06 1219.06C1179.02 1219.02 1178.97 1218.98 1178.93 1218.95C1178.32 1218.54 1177.5 1218.98 1177.5 1219.71V1394.38C1177.5 1397.02 1178.55 1399.55 1180.41 1401.43L1421.98 1644.44C1425.86 1648.34 1425.85 1654.65 1421.96 1658.55L1179.97 1901.03C1178.07 1902.93 1177.02 1905.51 1177.05 1908.2L1178.74 2061.14C1178.83 2070 1189.57 2074.37 1195.83 2068.08L1604.46 1657.08C1608.35 1653.17 1608.33 1646.84 1604.42 1642.95Z" fill="black"/>
<path d="M1901.42 1642.95L1476.06 1219.06C1476.02 1219.02 1475.97 1218.98 1475.93 1218.95C1475.32 1218.54 1474.5 1218.98 1474.5 1219.71V1394.38C1474.5 1397.02 1475.55 1399.55 1477.41 1401.43L1718.98 1644.44C1722.86 1648.34 1722.85 1654.65 1718.96 1658.55L1476.97 1901.03C1475.07 1902.93 1474.02 1905.51 1474.05 1908.2L1475.74 2061.14C1475.83 2070 1486.57 2074.37 1492.83 2068.08L1901.46 1657.08C1905.35 1653.17 1905.33 1646.84 1901.42 1642.95Z" fill="black"/>
<path d="M843.4 1115C840.733 1115 839 1113.67 838.2 1111L826.2 1071.8C825.667 1070.73 825 1070.2 824.2 1070.2H725.8C725 1070.2 724.333 1070.73 723.8 1071.8L712.2 1111C711.4 1113.67 709.667 1115 707 1115H656.2C654.6 1115 653.4 1114.6 652.6 1113.8C651.8 1112.73 651.667 1111.27 652.2 1109.4L738.6 839C739.4 836.333 741.133 835 743.8 835H806.6C809.267 835 811 836.333 811.8 839L898.2 1109.4C898.467 1109.93 898.6 1110.6 898.6 1111.4C898.6 1113.8 897.133 1115 894.2 1115H843.4ZM738.2 1024.2C737.933 1025.8 738.467 1026.6 739.8 1026.6H810.2C811.8 1026.6 812.333 1025.8 811.8 1024.2L775.8 905.4C775.533 904.333 775.133 903.933 774.6 904.2C774.067 904.2 773.667 904.6 773.4 905.4L738.2 1024.2ZM1087.36 1115C1084.69 1115 1082.83 1113.8 1081.76 1111.4L1031.76 1000.6C1031.23 999.533 1030.43 999 1029.36 999H992.159C990.826 999 990.159 999.667 990.159 1001V1110.2C990.159 1111.53 989.626 1112.73 988.559 1113.8C987.759 1114.6 986.693 1115 985.359 1115H938.559C937.226 1115 936.026 1114.6 934.959 1113.8C934.159 1112.73 933.759 1111.53 933.759 1110.2V839.8C933.759 838.467 934.159 837.4 934.959 836.6C936.026 835.533 937.226 835 938.559 835H1052.96C1070.03 835 1084.96 838.467 1097.76 845.4C1110.83 852.333 1120.83 862.2 1127.76 875C1134.96 887.8 1138.56 902.6 1138.56 919.4C1138.56 937.533 1134.03 953.133 1124.96 966.2C1115.89 979 1103.23 988.067 1086.96 993.4C1085.63 993.933 1085.23 994.867 1085.76 996.2L1140.16 1109.4C1140.69 1110.47 1140.96 1111.27 1140.96 1111.8C1140.96 1113.93 1139.49 1115 1136.56 1115H1087.36ZM992.159 883.4C990.826 883.4 990.159 884.067 990.159 885.4V953.8C990.159 955.133 990.826 955.8 992.159 955.8H1044.56C1055.76 955.8 1064.83 952.467 1071.76 945.8C1078.96 939.133 1082.56 930.467 1082.56 919.8C1082.56 909.133 1078.96 900.467 1071.76 893.8C1064.83 886.867 1055.76 883.4 1044.56 883.4H992.159ZM1333.06 1115C1330.4 1115 1328.53 1113.8 1327.46 1111.4L1277.46 1000.6C1276.93 999.533 1276.13 999 1275.06 999H1237.86C1236.53 999 1235.86 999.667 1235.86 1001V1110.2C1235.86 1111.53 1235.33 1112.73 1234.26 1113.8C1233.46 1114.6 1232.4 1115 1231.06 1115H1184.26C1182.93 1115 1181.73 1114.6 1180.66 1113.8C1179.86 1112.73 1179.46 1111.53 1179.46 1110.2V839.8C1179.46 838.467 1179.86 837.4 1180.66 836.6C1181.73 835.533 1182.93 835 1184.26 835H1298.66C1315.73 835 1330.66 838.467 1343.46 845.4C1356.53 852.333 1366.53 862.2 1373.46 875C1380.66 887.8 1384.26 902.6 1384.26 919.4C1384.26 937.533 1379.73 953.133 1370.66 966.2C1361.6 979 1348.93 988.067 1332.66 993.4C1331.33 993.933 1330.93 994.867 1331.46 996.2L1385.86 1109.4C1386.4 1110.47 1386.66 1111.27 1386.66 1111.8C1386.66 1113.93 1385.2 1115 1382.26 1115H1333.06ZM1237.86 883.4C1236.53 883.4 1235.86 884.067 1235.86 885.4V953.8C1235.86 955.133 1236.53 955.8 1237.86 955.8H1290.26C1301.46 955.8 1310.53 952.467 1317.46 945.8C1324.66 939.133 1328.26 930.467 1328.26 919.8C1328.26 909.133 1324.66 900.467 1317.46 893.8C1310.53 886.867 1301.46 883.4 1290.26 883.4H1237.86ZM1524.77 1119.4C1503.97 1119.4 1485.57 1115.13 1469.57 1106.6C1453.83 1098.07 1441.57 1086.2 1432.77 1071C1423.97 1055.53 1419.57 1037.8 1419.57 1017.8V932.2C1419.57 912.467 1423.97 895 1432.77 879.8C1441.57 864.6 1453.83 852.867 1469.57 844.6C1485.57 836.067 1503.97 831.8 1524.77 831.8C1545.83 831.8 1564.23 836.067 1579.97 844.6C1595.97 852.867 1608.37 864.6 1617.17 879.8C1625.97 895 1630.37 912.467 1630.37 932.2V1017.8C1630.37 1037.8 1625.97 1055.53 1617.17 1071C1608.37 1086.47 1595.97 1098.47 1579.97 1107C1564.23 1115.27 1545.83 1119.4 1524.77 1119.4ZM1524.77 1071C1539.43 1071 1551.3 1066.33 1560.37 1057C1569.43 1047.67 1573.97 1035.27 1573.97 1019.8V931.8C1573.97 916.333 1569.43 903.933 1560.37 894.6C1551.57 885 1539.7 880.2 1524.77 880.2C1510.1 880.2 1498.23 885 1489.17 894.6C1480.37 903.933 1475.97 916.333 1475.97 931.8V1019.8C1475.97 1035.27 1480.37 1047.67 1489.17 1057C1498.23 1066.33 1510.1 1071 1524.77 1071ZM1729.74 1115C1726.81 1115 1724.94 1113.67 1724.14 1111L1653.34 840.2L1652.94 838.6C1652.94 836.2 1654.41 835 1657.34 835H1706.94C1709.61 835 1711.34 836.333 1712.14 839L1750.14 1001.8C1750.41 1002.87 1750.81 1003.4 1751.34 1003.4C1751.88 1003.4 1752.28 1002.87 1752.54 1001.8L1789.34 839.4C1790.14 836.467 1791.88 835 1794.54 835H1842.94C1845.88 835 1847.74 836.333 1848.54 839L1888.54 1001.8C1888.81 1002.6 1889.21 1003.13 1889.74 1003.4C1890.28 1003.4 1890.68 1002.87 1890.94 1001.8L1927.74 839.4C1928.54 836.467 1930.28 835 1932.94 835H1980.14C1983.88 835 1985.34 836.733 1984.54 840.2L1918.94 1111C1918.14 1113.67 1916.28 1115 1913.34 1115H1865.74C1863.08 1115 1861.34 1113.67 1860.54 1111L1819.74 937.8C1819.48 936.733 1819.08 936.2 1818.54 936.2C1818.01 936.2 1817.61 936.733 1817.34 937.8L1779.34 1110.6C1778.81 1113.53 1777.08 1115 1774.14 1115H1729.74Z" fill="black"/>
</svg>
