<svg width="115" height="39" viewBox="0 0 115 39" fill="none" xmlns="http://www.w3.org/2000/svg">
<path d="M5.04066 27.2197L18.2536 34.9434V20.118L13.192 17.1116L13.1717 23.0012L17.5015 25.5486L17.4811 29.4818L9.04519 24.6519V14.7069L5 12.3633L5.04066 27.2197Z" fill="url(#paint0_linear_978_5773)"/>
<path d="M18.2534 34.9434V20.1607L31.0161 12.3633V16.6681L22.1377 22.1507V26.5774L30.9765 21.176V27.2272L18.2534 34.9434Z" fill="url(#paint1_linear_978_5773)"/>
<path d="M8.98393 14.864L5 12.5785L18.0383 5L31.0163 12.5384L18.1188 20.2171L13.0685 17.2498L22.143 11.8567L18.0786 9.47089L8.98393 14.864Z" fill="url(#paint2_linear_978_5773)"/>
<path d="M43.7012 23.7134C44.043 23.7134 44.3403 23.6484 44.5933 23.5186C44.8462 23.3887 45.041 23.2075 45.1777 22.9751C45.3213 22.7358 45.3931 22.4487 45.3931 22.1138H48.4077C48.4077 22.9204 48.1992 23.6313 47.7822 24.2466C47.3721 24.8618 46.8184 25.3438 46.1211 25.6924C45.4238 26.0342 44.6377 26.2051 43.7627 26.2051C42.9014 26.2051 42.1494 26.0649 41.5068 25.7847C40.8643 25.4976 40.3276 25.0977 39.897 24.585C39.4663 24.0723 39.1416 23.4775 38.9229 22.8008C38.7109 22.1172 38.605 21.3789 38.605 20.5859V20.3193C38.605 19.5332 38.7109 18.7983 38.9229 18.1147C39.1416 17.4312 39.4663 16.833 39.897 16.3203C40.3276 15.8076 40.8608 15.4111 41.4966 15.1309C42.1392 14.8438 42.8911 14.7002 43.7524 14.7002C44.6616 14.7002 45.4648 14.8745 46.1621 15.2231C46.8662 15.5718 47.4165 16.0742 47.813 16.7305C48.2095 17.3799 48.4077 18.1626 48.4077 19.0786H45.3931C45.3931 18.7231 45.3281 18.4053 45.1982 18.125C45.0752 17.8379 44.8838 17.6123 44.624 17.4482C44.3711 17.2773 44.0566 17.1919 43.6807 17.1919C43.291 17.1919 42.9697 17.2773 42.7168 17.4482C42.4707 17.6123 42.2827 17.8413 42.1528 18.1353C42.0229 18.4292 41.9341 18.7642 41.8862 19.1401C41.8384 19.5093 41.8145 19.9023 41.8145 20.3193V20.5859C41.8145 21.0098 41.8384 21.4131 41.8862 21.7959C41.9341 22.1719 42.0229 22.5034 42.1528 22.7905C42.2896 23.0776 42.481 23.3032 42.7271 23.4673C42.9731 23.6313 43.2979 23.7134 43.7012 23.7134ZM55.8726 23.3545V18.5967C55.8726 18.2617 55.8213 17.9746 55.7188 17.7354C55.6162 17.4961 55.4556 17.3081 55.2368 17.1714C55.0181 17.0347 54.7344 16.9663 54.3857 16.9663C54.0918 16.9663 53.8354 17.0176 53.6167 17.1201C53.4048 17.2227 53.2407 17.3696 53.1245 17.561C53.0151 17.7524 52.9604 17.9883 52.9604 18.2686H49.7612C49.7612 17.7695 49.874 17.3047 50.0996 16.874C50.3252 16.4434 50.6465 16.064 51.0635 15.7358C51.4873 15.4077 51.9932 15.1548 52.5811 14.9771C53.1689 14.7925 53.8286 14.7002 54.5601 14.7002C55.4282 14.7002 56.2007 14.8472 56.8774 15.1411C57.561 15.4282 58.1011 15.8623 58.4976 16.4434C58.894 17.0176 59.0923 17.7422 59.0923 18.6172V23.2622C59.0923 23.9321 59.1299 24.4585 59.2051 24.8413C59.2871 25.2173 59.4033 25.5454 59.5537 25.8257V26H56.3237C56.1733 25.6787 56.0605 25.2822 55.9854 24.8105C55.9102 24.332 55.8726 23.8467 55.8726 23.3545ZM56.2725 19.2324L56.293 20.9961H54.7036C54.3481 20.9961 54.0405 21.0405 53.7808 21.1294C53.5278 21.2183 53.3228 21.3413 53.1655 21.4985C53.0083 21.6489 52.8921 21.8267 52.8169 22.0317C52.7485 22.23 52.7144 22.4487 52.7144 22.688C52.7144 22.9136 52.769 23.1187 52.8784 23.3032C52.9878 23.481 53.1382 23.6211 53.3296 23.7236C53.521 23.8262 53.7432 23.8774 53.9961 23.8774C54.4131 23.8774 54.7686 23.7954 55.0625 23.6313C55.3633 23.4673 55.5957 23.269 55.7598 23.0366C55.9238 22.7974 56.0059 22.5752 56.0059 22.3701L56.7749 23.7031C56.6519 23.9766 56.5015 24.2603 56.3237 24.5542C56.146 24.8413 55.9204 25.1113 55.647 25.3643C55.3735 25.6104 55.042 25.812 54.6523 25.9692C54.2695 26.1265 53.8081 26.2051 53.2681 26.2051C52.5708 26.2051 51.9385 26.0649 51.3711 25.7847C50.8037 25.4976 50.3491 25.1045 50.0073 24.6055C49.6724 24.1064 49.5049 23.5322 49.5049 22.8828C49.5049 22.3018 49.6108 21.7856 49.8228 21.3345C50.0347 20.8833 50.3525 20.5005 50.7764 20.186C51.207 19.8716 51.7471 19.6357 52.3965 19.4785C53.0459 19.3145 53.8047 19.2324 54.6729 19.2324H56.2725ZM70.1665 23.5083V26H61.6558V23.5083H70.1665ZM70.0332 16.6895L63.0298 26H60.856V24.1543L67.8389 14.9053H70.0332V16.6895ZM68.936 14.9053V17.397H61.0405V14.9053H68.936ZM75.1704 17.0381V30.2656H71.9712V14.9053H74.9551L75.1704 17.0381ZM82.0918 20.3296V20.5449C82.0918 21.3516 81.9995 22.1001 81.8149 22.7905C81.6304 23.4741 81.3535 24.0723 80.9844 24.585C80.6221 25.0977 80.1743 25.4976 79.6411 25.7847C79.1079 26.0649 78.4893 26.2051 77.7852 26.2051C77.1152 26.2051 76.5342 26.0649 76.042 25.7847C75.5566 25.4976 75.1465 25.1011 74.8115 24.5952C74.4834 24.0825 74.2168 23.498 74.0117 22.8418C73.8135 22.1787 73.6597 21.4712 73.5503 20.7192V20.2988C73.6597 19.499 73.8169 18.7573 74.022 18.0737C74.2271 17.3901 74.4937 16.7988 74.8218 16.2998C75.1499 15.7939 75.5566 15.4009 76.042 15.1206C76.5273 14.8403 77.105 14.7002 77.7749 14.7002C78.4722 14.7002 79.0908 14.8335 79.6309 15.1001C80.1709 15.3667 80.6221 15.7495 80.9844 16.2485C81.3535 16.7407 81.6304 17.332 81.8149 18.0225C81.9995 18.7129 82.0918 19.4819 82.0918 20.3296ZM78.8823 20.5449V20.3296C78.8823 19.8784 78.8481 19.4648 78.7798 19.0889C78.7114 18.7061 78.6021 18.3745 78.4517 18.0942C78.3013 17.8071 78.103 17.585 77.8569 17.4277C77.6108 17.2705 77.3101 17.1919 76.9546 17.1919C76.5718 17.1919 76.2471 17.2534 75.9805 17.3765C75.7139 17.4995 75.4985 17.6807 75.3345 17.9199C75.1704 18.1523 75.0508 18.4395 74.9756 18.7812C74.9072 19.123 74.8696 19.5127 74.8628 19.9502V21.0781C74.8696 21.5908 74.9414 22.0488 75.0781 22.4521C75.2217 22.8486 75.4438 23.1597 75.7446 23.3853C76.0522 23.604 76.4624 23.7134 76.9751 23.7134C77.3374 23.7134 77.6382 23.6348 77.8774 23.4775C78.1235 23.3135 78.3184 23.0845 78.4619 22.7905C78.6123 22.4966 78.7183 22.1582 78.7798 21.7754C78.8481 21.3926 78.8823 20.9824 78.8823 20.5449ZM87.1675 14.9053V26H83.958V14.9053H87.1675ZM83.7632 12.0342C83.7632 11.5693 83.9272 11.1899 84.2554 10.896C84.5835 10.5952 85.0142 10.4448 85.5474 10.4448C86.0806 10.4448 86.5112 10.5952 86.8394 10.896C87.1743 11.1899 87.3418 11.5693 87.3418 12.0342C87.3418 12.4922 87.1743 12.8716 86.8394 13.1724C86.5112 13.4663 86.0806 13.6133 85.5474 13.6133C85.0142 13.6133 84.5835 13.4663 84.2554 13.1724C83.9272 12.8716 83.7632 12.4922 83.7632 12.0342ZM95.3501 23.3545V18.5967C95.3501 18.2617 95.2988 17.9746 95.1963 17.7354C95.0938 17.4961 94.9331 17.3081 94.7144 17.1714C94.4956 17.0347 94.2119 16.9663 93.8633 16.9663C93.5693 16.9663 93.313 17.0176 93.0942 17.1201C92.8823 17.2227 92.7183 17.3696 92.6021 17.561C92.4927 17.7524 92.438 17.9883 92.438 18.2686H89.2388C89.2388 17.7695 89.3516 17.3047 89.5771 16.874C89.8027 16.4434 90.124 16.064 90.541 15.7358C90.9648 15.4077 91.4707 15.1548 92.0586 14.9771C92.6465 14.7925 93.3062 14.7002 94.0376 14.7002C94.9058 14.7002 95.6782 14.8472 96.355 15.1411C97.0386 15.4282 97.5786 15.8623 97.9751 16.4434C98.3716 17.0176 98.5698 17.7422 98.5698 18.6172V23.2622C98.5698 23.9321 98.6074 24.4585 98.6826 24.8413C98.7646 25.2173 98.8809 25.5454 99.0312 25.8257V26H95.8013C95.6509 25.6787 95.5381 25.2822 95.4629 24.8105C95.3877 24.332 95.3501 23.8467 95.3501 23.3545ZM95.75 19.2324L95.7705 20.9961H94.1812C93.8257 20.9961 93.5181 21.0405 93.2583 21.1294C93.0054 21.2183 92.8003 21.3413 92.6431 21.4985C92.4858 21.6489 92.3696 21.8267 92.2944 22.0317C92.2261 22.23 92.1919 22.4487 92.1919 22.688C92.1919 22.9136 92.2466 23.1187 92.356 23.3032C92.4653 23.481 92.6157 23.6211 92.8071 23.7236C92.9985 23.8262 93.2207 23.8774 93.4736 23.8774C93.8906 23.8774 94.2461 23.7954 94.54 23.6313C94.8408 23.4673 95.0732 23.269 95.2373 23.0366C95.4014 22.7974 95.4834 22.5752 95.4834 22.3701L96.2524 23.7031C96.1294 23.9766 95.979 24.2603 95.8013 24.5542C95.6235 24.8413 95.3979 25.1113 95.1245 25.3643C94.8511 25.6104 94.5195 25.812 94.1299 25.9692C93.7471 26.1265 93.2856 26.2051 92.7456 26.2051C92.0483 26.2051 91.416 26.0649 90.8486 25.7847C90.2812 25.4976 89.8267 25.1045 89.4849 24.6055C89.1499 24.1064 88.9824 23.5322 88.9824 22.8828C88.9824 22.3018 89.0884 21.7856 89.3003 21.3345C89.5122 20.8833 89.8301 20.5005 90.2539 20.186C90.6846 19.8716 91.2246 19.6357 91.874 19.4785C92.5234 19.3145 93.2822 19.2324 94.1504 19.2324H95.75ZM103.81 17.2739V26H100.6V14.9053H103.615L103.81 17.2739ZM103.389 20.063L102.589 20.0835C102.589 19.2495 102.692 18.501 102.897 17.8379C103.102 17.1748 103.393 16.6108 103.769 16.146C104.151 15.6743 104.606 15.3154 105.132 15.0693C105.666 14.8232 106.253 14.7002 106.896 14.7002C107.416 14.7002 107.891 14.7754 108.321 14.9258C108.752 15.0762 109.121 15.3188 109.429 15.6538C109.743 15.9819 109.982 16.4194 110.146 16.9663C110.311 17.5063 110.393 18.1729 110.393 18.9658V26H107.173V18.9556C107.173 18.4907 107.108 18.1318 106.978 17.8789C106.848 17.626 106.657 17.4482 106.404 17.3457C106.158 17.2432 105.857 17.1919 105.501 17.1919C105.125 17.1919 104.804 17.2671 104.538 17.4175C104.271 17.561 104.052 17.7627 103.881 18.0225C103.71 18.2822 103.584 18.5864 103.502 18.9351C103.427 19.2837 103.389 19.6597 103.389 20.063Z" fill="#4525DC"/>
<defs>
<linearGradient id="paint0_linear_978_5773" x1="5" y1="12.3633" x2="17.1223" y2="34.9586" gradientUnits="userSpaceOnUse">
<stop offset="0.102884" stop-color="#4599FF"/>
<stop offset="1" stop-color="#405BFE"/>
</linearGradient>
<linearGradient id="paint1_linear_978_5773" x1="18.2534" y1="19.7343" x2="31.1727" y2="27.1156" gradientUnits="userSpaceOnUse">
<stop stop-color="#4522E1"/>
<stop offset="1" stop-color="#4729D8"/>
</linearGradient>
<linearGradient id="paint2_linear_978_5773" x1="5" y1="12.6186" x2="30.3523" y2="12.6186" gradientUnits="userSpaceOnUse">
<stop stop-color="#4970FF"/>
<stop offset="1" stop-color="#6C3EFE"/>
</linearGradient>
</defs>
</svg>
